<?xml version="1.0" encoding="UTF-8" standalone="no"?>
<svg
   xmlns:dc="http://purl.org/dc/elements/1.1/"
   xmlns:cc="http://creativecommons.org/ns#"
   xmlns:rdf="http://www.w3.org/1999/02/22-rdf-syntax-ns#"
   xmlns:svg="http://www.w3.org/2000/svg"
   xmlns="http://www.w3.org/2000/svg"
   xmlns:sodipodi="http://sodipodi.sourceforge.net/DTD/sodipodi-0.dtd"
   xmlns:inkscape="http://www.inkscape.org/namespaces/inkscape"
   height="512pt"
   viewBox="0 -9 512.00282 512"
   width="512pt"
   version="1.1"
   id="svg16"
   sodipodi:docname="chef_whiteBackground.svg"
   inkscape:version="0.92.4 (5da689c313, 2019-01-14)">
  <metadata
     id="metadata22">
    <rdf:RDF>
      <cc:Work
         rdf:about="">
        <dc:format>image/svg+xml</dc:format>
        <dc:type
           rdf:resource="http://purl.org/dc/dcmitype/StillImage" />
      </cc:Work>
    </rdf:RDF>
  </metadata>
  <defs
     id="defs20" />
  <sodipodi:namedview
     pagecolor="#ffffff"
     bordercolor="#666666"
     borderopacity="1"
     objecttolerance="10"
     gridtolerance="10"
     guidetolerance="10"
     inkscape:pageopacity="0"
     inkscape:pageshadow="2"
     inkscape:window-width="1920"
     inkscape:window-height="1017"
     id="namedview18"
     showgrid="false"
     inkscape:zoom="0.9777961"
     inkscape:cx="307.34884"
     inkscape:cy="284.86637"
     inkscape:window-x="1912"
     inkscape:window-y="-8"
     inkscape:window-maximized="1"
     inkscape:current-layer="svg16" />
  <path
     d="m404.015625 45.144531c-16.628906-2.152343-33.242187-.871093-49.503906 3.8125-23.332031-30.78125-59.683594-48.957031-98.515625-48.957031-38.832032 0-75.183594 18.1875-98.515625 48.957031-16.261719-4.667969-32.875-5.957031-49.503907-3.8125-61.035156 7.910157-107.453124 60.144531-107.97265575 121.503907-.48437525 57.40625 38.02343775 107.175781 93.64453175 121.019531 13.207031 3.28125 22.949218 14.589843 24.238281 28.140625l7.398437 77.710937h-.007812l4.230468 44.394531c1.796876 18.941407 25.773438 31.945313 35.855469 36.605469 1.441407.664063 2.597657 1.15625 3.363281 1.476563 27.738282 11.675781 57.503907 17.511718 87.269532 17.511718 29.757812 0 59.496094-5.835937 87.191406-17.496093 6.195312-2.558594 37.207031-16.453125 39.273438-38.097657l4.230468-44.394531h-.011718l7.398437-77.710937c1.289063-13.550782 11.035156-24.859375 24.242187-28.140625 55.648438-13.851563 94.164063-63.613281 93.679688-121.019531-.535156-61.359376-46.949219-113.59375-107.984375-121.503907zm-67.617187 414.582031c-51.105469 21.519532-109.71875 21.53125-160.859376-.019531-11.007812-4.589843-27.664062-15.21875-28.449218-23.464843l-1.09375-11.457032c34.914062 16.878906 71.832031 25.425782 109.992187 25.425782 38.160157 0 75.078125-8.546876 109.992188-25.425782l-1.09375 11.457032c-.769531 8.246093-17.4375 18.882812-28.488281 23.484374zm77.679687-189.203124c-20.453125 5.09375-35.546875 22.625-37.550781 43.605468l-8.546875 89.707032c-35.34375 18.988281-72.984375 28.707031-111.984375 28.707031s-76.640625-9.71875-111.988282-28.707031l-8.542968-89.707032c-2.003906-20.988281-17.097656-38.511718-37.550782-43.605468-47.671874-11.863282-80.675781-54.519532-80.261718-103.726563.449218-52.59375 40.253906-97.355469 92.59375-104.136719 4.449218-.574218 8.90625-.875 13.355468-.875 11.589844 0 23.136719 1.960938 34.453126 5.855469l6.390624 2.199219 3.796876-5.597656c19.765624-29.15625 52.570312-46.582032 87.753906-46.582032 35.1875 0 67.992187 17.425782 87.757812 46.589844l3.792969 5.597656 6.394531-2.199218c15.660156-5.386719 31.742188-7.0625 47.808594-4.980469 52.328125 6.773437 92.140625 51.539062 92.59375 104.132812.410156 49.210938-32.59375 91.867188-80.265625 103.722657zm0 0"
     id="path2" />
  <path
     d="m166.625 300.210938c-4.835938.597656-8.269531 5.015624-7.660156 9.851562l8.828125 70.621094c.554687 4.464844 4.359375 7.730468 8.746093 7.730468.371094 0 .734376-.027343 1.101563-.070312 4.839844-.597656 8.273437-5.015625 7.664063-9.851562l-8.828126-70.621094c-.609374-4.84375-5.066406-8.21875-9.851562-7.660156zm0 0"
     id="path4" />
  <path
     d="m229.511719 317.796875c-4.871094 0-8.828125 3.945313-8.828125 8.828125v70.621094c0 4.878906 3.957031 8.824218 8.828125 8.824218 4.875 0 8.828125-3.945312 8.828125-8.824218v-70.621094c0-4.882812-3.953125-8.828125-8.828125-8.828125zm0 0"
     id="path6" />
  <path
     d="m345.367188 300.210938c-4.792969-.558594-9.25 2.816406-9.851563 7.660156l-8.828125 70.621094c-.601562 4.839843 2.824219 9.253906 7.660156 9.851562.371094.042969.742188.070312 1.105469.070312 4.386719 0 8.191406-3.265624 8.746094-7.730468l8.828125-70.621094c.609375-4.835938-2.824219-9.253906-7.660156-9.851562zm0 0"
     id="path8" />
  <path
     d="m282.476562 317.796875c-4.871093 0-8.828124 3.945313-8.828124 8.828125v70.621094c0 4.878906 3.957031 8.824218 8.828124 8.824218 4.875 0 8.828126-3.945312 8.828126-8.824218v-70.621094c0-4.882812-3.953126-8.828125-8.828126-8.828125zm0 0"
     id="path10" />
  <path
     d="m141.335938 88.277344c-73.695313-.625-88.039063 59.296875-88.164063 59.90625-1.050781 4.757812 1.96875 9.460937 6.726563 10.503906.636718.140625 1.28125.203125 1.898437.203125 4.054687 0 7.714844-2.808594 8.617187-6.9375.105469-.46875 10.691407-47.042969 70.734376-46.027344 4.722656-.328125 8.871093-3.867187 8.925781-8.730469.050781-4.867187-3.867188-8.863281-8.738281-8.917968zm0 0"
     id="path12" />
  <path
     d="m206.464844 54.804688c-3.859375 2.980468-4.574219 8.527343-1.589844 12.382812 2.976562 3.859375 8.527344 4.554688 12.382812 1.597656.363282-.292968 37.269532-28.089844 77.824219.238282 1.535157 1.078124 3.304688 1.597656 5.050781 1.597656 2.789063 0 5.523438-1.316406 7.246094-3.777344 2.789063-3.992188 1.820313-9.5-2.179687-12.289062-40.878907-28.539063-82.457031-12.304688-98.734375.25zm0 0"
     id="path14" />
  <path
     style="fill:#fcffff;fill-opacity:1;stroke:#000000;stroke-width:0.72316384;stroke-opacity:1"
     d="m 327.12445,587.98858 c -42.3099,-1.89239 -82.76979,-12.34004 -123.11864,-31.79196 -6.46328,-3.11591 -11.75141,-5.80176 -11.75141,-5.96857 0,-3.85302 -11.88571,-123.23266 -12.63283,-126.88359 -3.95427,-19.32344 -17.50242,-36.85311 -35.52853,-45.96961 -2.02773,-1.0255 -9.17997,-3.53837 -15.89387,-5.58414 -13.15682,-4.00898 -17.71817,-5.7598 -26.70183,-10.24921 -57.269097,-28.61907 -87.905184,-92.48357 -74.516583,-155.33848 5.517726,-25.90385 19.02377,-50.49654 38.336529,-69.80567 19.53645,-19.53278 42.740864,-32.35073 69.168484,-38.208171 12.61295,-2.795544 21.84115,-3.604152 35.71213,-3.129228 14.15607,0.484685 24.82303,2.406857 39.05942,7.038449 4.83785,1.57393 9.16445,2.86168 9.61466,2.86168 0.45022,0 2.42598,-2.38208 4.39058,-5.293502 19.76692,-29.2933 47.87472,-49.783019 80.46474,-58.656299 33.1758,-9.032776 67.48819,-6.005014 98.09464,8.655978 23.8581,11.42842 42.12509,27.305157 57.58835,50.052844 1.95947,2.882539 3.93233,5.240979 4.38412,5.240979 0.45179,0 3.72995,-0.99229 7.28478,-2.20509 36.47926,-12.445606 73.6921,-10.311886 107.70628,6.17569 14.35641,6.95893 24.72847,14.09587 35.72783,24.58405 37.14177,35.41563 52.20377,86.61365 40.10613,136.32671 -4.60705,18.9318 -14.5659,39.07276 -26.81804,54.23728 -5.90331,7.30655 -18.04235,19.00492 -25.32052,24.40136 -15.18365,11.258 -28.17125,17.47464 -49.66964,23.77489 -4.80569,1.40833 -11.39688,3.87691 -14.64708,5.48572 -18.26007,9.03854 -32.19764,27.79883 -35.61792,47.94255 -0.40521,2.38645 -3.18891,30.37289 -6.18602,62.1921 -2.99711,31.8192 -5.62551,58.91631 -5.8409,60.21579 -0.36538,2.20453 -1.01111,2.67314 -9.64506,6.99962 -37.57663,18.82969 -81.94145,30.85761 -120.12268,32.56696 -18.72781,0.83843 -21.6389,0.86707 -33.62712,0.33087 z m -14.20234,-36.6523 c 1.00055,-0.74702 2.49015,-2.25673 3.3102,-3.3549 1.46801,-1.96588 1.49402,-2.7748 1.68604,-52.42483 l 0.19503,-50.42815 -1.6795,-3.17596 c -3.40824,-6.44508 -11.79412,-8.3863 -17.48309,-4.04711 -4.98257,3.80039 -4.73058,0.78222 -4.72759,56.62336 0.003,50.24778 0.01,50.48807 1.54499,53.00766 1.93206,3.17074 3.72052,4.48779 7.4499,5.48623 3.40607,0.91188 7.0789,0.27363 9.70402,-1.6863 z m 70.40816,0.0972 c 5.52919,-3.53625 5.23916,-0.61168 5.46352,-55.09166 0.14132,-34.31553 -0.039,-49.55283 -0.61187,-51.68 -1.66272,-6.17487 -7.83345,-10.06861 -14.09496,-8.89394 -3.50638,0.6578 -8.06955,4.91392 -9.009,8.40279 -0.49221,1.8279 -0.68078,19.61553 -0.54927,51.80908 0.1942,47.53444 0.24427,49.10017 1.64661,51.48097 3.71646,6.30957 10.90008,7.97315 17.15497,3.97276 z m -142.91393,-22.631 c 4.01239,-1.82221 6.27196,-5.16632 6.59796,-9.76484 0.14356,-2.02514 -2.46447,-25.2539 -5.79564,-51.61945 -6.48711,-51.3443 -6.15641,-49.70802 -10.73723,-53.1281 -3.735,-2.78857 -10.16633,-2.70474 -14.12513,0.18412 -2.64281,1.92854 -4.57297,5.9222 -4.5436,9.40113 0.0151,1.78983 2.71649,24.59104 6.00307,50.66937 6.64807,52.75087 6.29209,51.17701 12.24162,54.12199 3.74956,1.856 6.49196,1.89195 10.35895,0.13578 z m 211.887,0 c 2.82412,-1.28256 5.27353,-3.92709 6.32309,-6.82677 0.72872,-2.01331 12.12719,-93.55817 12.18501,-97.86195 0.1842,-13.70936 -19.16446,-16.73781 -23.18093,-3.62827 -0.38843,1.26781 -3.40424,24.11942 -6.7018,50.78137 l -5.99556,48.47626 1.77926,3.59153 c 1.3635,2.75228 2.53328,3.97175 5.00595,5.21865 3.90293,1.96814 6.65718,2.03297 10.58498,0.24918 z M 87.034059,222.92204 c 4.181946,-1.92036 5.233909,-3.43629 8.359282,-12.04612 4.961519,-13.66808 10.865959,-22.7921 21.090809,-32.59123 14.60398,-13.99594 32.49985,-21.6754 56.24482,-24.13573 3.77854,-0.39151 9.28935,-0.71748 12.24626,-0.72437 6.34095,-0.0147 10.70918,-1.76915 13.24022,-5.31754 2.24189,-3.14301 2.31834,-10.30265 0.14116,-13.21875 -3.13227,-4.19532 -4.94588,-4.9594 -12.42307,-5.23384 -18.26057,-0.67024 -40.18373,3.89124 -57.28631,11.91936 -21.00893,9.86182 -40.173227,28.60008 -50.735729,49.60786 -3.493554,6.94833 -5.477293,11.91742 -6.828289,17.10424 -1.721891,6.61079 0.659895,11.97563 6.492877,14.62484 3.70966,1.68484 5.808016,1.68734 9.45797,0.0113 z M 291.08393,103.09142 c 15.04694,-10.038633 32.94209,-15.487272 50.86538,-15.487272 17.75194,0 30.91754,4.049045 49.11375,15.104802 6.88766,4.18485 9.83145,4.64543 14.49258,2.2675 4.3924,-2.24083 6.17898,-5.314378 6.17898,-10.630006 0,-5.565343 -1.16002,-7.303362 -7.99922,-11.984943 -10.50943,-7.193929 -26.96758,-14.11245 -39.98586,-16.808877 -23.6623,-4.901083 -50.34752,-1.315937 -72.75778,9.774968 -18.49569,9.153573 -23.62263,15.80177 -18.97041,24.599252 1.14168,2.158946 2.67644,3.690666 4.88136,4.871666 4.58418,2.4554 8.6813,1.96219 14.18122,-1.70709 z"
     id="path855"
     inkscape:connector-curvature="0"
     transform="matrix(0.75000411,0,0,0.75000411,0,-9.00141)" />
  <path
     style="fill:#ffffff;fill-opacity:1;stroke:#000000;stroke-width:1.02270806;stroke-opacity:1"
     d="m 322.65382,645.46139 c -47.95381,-3.53102 -96.25166,-19.53679 -117.4701,-38.92925 -6.83247,-6.24449 -8.41849,-9.57542 -9.31346,-19.55995 l -0.70342,-7.84759 11.18162,4.98946 c 14.08475,6.2849 34.6893,13.38293 51.87475,17.87027 73.95298,19.31005 151.47032,12.27615 223.61211,-20.2905 l 5.77528,-2.60711 -0.45192,4.28705 c -1.17251,11.12282 -1.66712,13.09539 -4.24632,16.93497 -10.15087,15.11128 -46.77695,32.16549 -85.84302,39.9711 -24.54004,4.90323 -52.11744,6.82345 -74.41552,5.18155 z"
     id="path857"
     inkscape:connector-curvature="0"
     transform="matrix(0.75000411,0,0,0.75000411,0,-9.00141)" />
</svg>
